<svg width="22" height="24" viewBox="0 0 22 24" fill="none" xmlns="http://www.w3.org/2000/svg">
<path d="M16.1158 7.6427V5.50504C16.1158 4.83892 15.9846 4.17932 15.7297 3.56391C15.4748 2.94849 15.1012 2.38931 14.6301 1.9183C14.1591 1.44728 13.6 1.07365 12.9845 0.818732C12.3691 0.563819 11.7095 0.432617 11.0434 0.432617C10.3773 0.432617 9.71769 0.563819 9.10227 0.818732C8.48686 1.07365 7.92768 1.44728 7.45666 1.9183C6.98564 2.38931 6.61201 2.94849 6.3571 3.56391C6.10218 4.17932 5.97098 4.83892 5.97098 5.50504V10.5775C5.97098 10.7696 6.04733 10.954 6.18322 11.0899C6.31912 11.2257 6.50343 11.3021 6.69561 11.3021C6.8878 11.3021 7.07211 11.2257 7.20801 11.0899C7.3439 10.954 7.42025 10.7696 7.42025 10.5775V9.09197H13.2173V7.6427H7.42025V5.50504C7.42025 4.54412 7.80197 3.62255 8.48144 2.94308C9.16092 2.26361 10.0825 1.88188 11.0434 1.88188C12.0043 1.88188 12.9259 2.26361 13.6054 2.94308C14.2848 3.62255 14.6666 4.54412 14.6666 5.50504V10.5412C14.6666 10.7334 14.7429 10.9177 14.8788 11.0536C15.0147 11.1895 15.199 11.2659 15.3912 11.2659C15.5834 11.2659 15.7677 11.1895 15.9036 11.0536C16.0395 10.9177 16.1158 10.7334 16.1158 10.5412V9.09197H19.739V22.1353H2.34782V9.09197H4.52172V7.6427H0.89856V22.2006C0.89856 22.5676 1.04438 22.9197 1.30394 23.1792C1.5635 23.4388 1.91553 23.5846 2.28261 23.5846H19.8042C20.1713 23.5846 20.5233 23.4388 20.7829 23.1792C21.0424 22.9197 21.1882 22.5676 21.1882 22.2006V7.6427H16.1158Z" fill="#2B2E34"/>
<path fill-rule="evenodd" clip-rule="evenodd" d="M4.52168 7.6426V9.09187H2.34779V22.1352H19.739V9.09187H16.1158V10.5411C16.1158 10.7333 16.0394 10.9176 15.9036 11.0535C15.7677 11.1894 15.5833 11.2658 15.3912 11.2658C15.199 11.2658 15.0147 11.1894 14.8788 11.0535C14.7429 10.9176 14.6665 10.7333 14.6665 10.5411V5.50494C14.6665 4.54402 14.2848 3.62246 13.6053 2.94298C12.9259 2.26351 12.0043 1.88178 11.0434 1.88178C10.0824 1.88178 9.16088 2.26351 8.48141 2.94298C7.80193 3.62246 7.42021 4.54402 7.42021 5.50494V7.6426H13.2173V9.09187H7.42021V10.5774C7.42021 10.7695 7.34386 10.9539 7.20797 11.0898C7.07207 11.2256 6.88776 11.302 6.69558 11.302C6.50339 11.302 6.31908 11.2256 6.18319 11.0898C6.04729 10.9539 5.97095 10.7695 5.97095 10.5774V5.50494C5.97095 4.83882 6.10215 4.17922 6.35706 3.56381C6.61197 2.94839 6.98561 2.38922 7.45662 1.9182C7.92764 1.44718 8.48682 1.07355 9.10224 0.818635C9.71765 0.563721 10.3772 0.43252 11.0434 0.43252C11.7095 0.43252 12.3691 0.563721 12.9845 0.818635C13.5999 1.07355 14.1591 1.44718 14.6301 1.9182C15.1011 2.38922 15.4748 2.94839 15.7297 3.56381C15.9846 4.17922 16.1158 4.83882 16.1158 5.50494V7.6426H21.1882V22.2005C21.1882 22.5675 21.0424 22.9196 20.7828 23.1791C20.5233 23.4387 20.1712 23.5845 19.8042 23.5845H2.28257C1.9155 23.5845 1.56346 23.4387 1.3039 23.1791C1.04434 22.9196 0.898523 22.5675 0.898523 22.2005V7.6426H4.52168ZM16.2158 7.5426H21.2882V22.2005C21.2882 22.594 21.1319 22.9715 20.8535 23.2498C20.5752 23.5281 20.1978 23.6845 19.8042 23.6845H2.28257C1.88898 23.6845 1.5115 23.5281 1.23319 23.2498C0.954877 22.9715 0.798523 22.594 0.798523 22.2005V7.5426H4.62168V9.19187H2.44779V22.0352H19.639V9.19187H16.2158V10.5411C16.2158 10.7598 16.1289 10.9696 15.9743 11.1242C15.8196 11.2789 15.6099 11.3658 15.3912 11.3658C15.1725 11.3658 14.9627 11.2789 14.8081 11.1242C14.6534 10.9696 14.5665 10.7598 14.5665 10.5411V5.50494C14.5665 4.57054 14.1953 3.67441 13.5346 3.01369C12.8739 2.35297 11.9778 1.98178 11.0434 1.98178C10.109 1.98178 9.21284 2.35297 8.55212 3.01369C7.8914 3.67441 7.52021 4.57054 7.52021 5.50494V7.5426H13.3173V9.19187H7.52021V10.5774C7.52021 10.7961 7.43333 11.0058 7.27868 11.1605C7.12403 11.3151 6.91428 11.402 6.69558 11.402C6.47687 11.402 6.26712 11.3151 6.11247 11.1605C5.95783 11.0058 5.87095 10.7961 5.87095 10.5774V5.50494C5.87095 4.82569 6.00473 4.15309 6.26467 3.52554C6.52461 2.89799 6.90561 2.32779 7.38591 1.84749C7.86622 1.36718 8.43642 0.986185 9.06397 0.726247C9.69151 0.466308 10.3641 0.33252 11.0434 0.33252C11.7226 0.33252 12.3952 0.466308 13.0228 0.726247C13.6503 0.986185 14.2205 1.36718 14.7008 1.84749C15.1811 2.32779 15.5621 2.89799 15.8221 3.52554C16.082 4.15309 16.2158 4.82569 16.2158 5.50494V7.5426Z" fill="#2B2E34"/>
</svg>
